<?xml version="1.0" encoding="UTF-8"?>
<svg id="_圖層_2" data-name="圖層 2" xmlns="http://www.w3.org/2000/svg" viewBox="0 0 50.75 50.75">
  <defs>
    <style>
      .cls-1 {
        fill: #fff;
      }

      .cls-2 {
        stroke: gray;
        stroke-miterlimit: 10;
      }
    </style>
  </defs>
  <g id="_圖層_1-2" data-name="圖層 1">
    <circle class="cls-2" cx="25.37" cy="25.37" r="24.87"/>
    <path class="cls-1" d="M18.63,37.72V15.68h8.31c1.46,0,2.58.07,3.35.21,1.08.18,1.99.52,2.72,1.03s1.32,1.22,1.77,2.13.67,1.91.67,3.01c0,1.87-.6,3.46-1.79,4.76s-3.35,1.95-6.46,1.95h-5.65v8.96h-2.92ZM21.55,26.16h5.7c1.88,0,3.22-.35,4.01-1.05s1.19-1.69,1.19-2.96c0-.92-.23-1.71-.7-2.37s-1.08-1.09-1.84-1.3c-.49-.13-1.4-.2-2.72-.2h-5.64v7.88Z"/>
  </g>
</svg>